<svg width="1412" height="1098" viewBox="0 0 1412 1098" fill="none" xmlns="http://www.w3.org/2000/svg">
<path d="M165.904 -2.00122C165.714 -0.822533 164.622 -0.0212132 163.464 -0.21535C162.308 -0.409088 161.523 -1.52505 161.713 -2.70374C161.903 -3.88486 162.997 -4.6834 164.153 -4.48966C165.311 -4.29552 166.094 -3.18234 165.904 -2.00122Z" fill="#352852"/>
<path d="M203.728 30.1752C203.622 30.8287 203.015 31.2713 202.374 31.1639C201.733 31.0565 201.299 30.4392 201.404 29.7858C201.51 29.1299 202.115 28.6893 202.756 28.7968C203.396 28.9042 203.833 29.5193 203.728 30.1752Z" fill="#352852"/>
<path d="M273.877 1.47708C273.771 2.13056 273.166 2.57343 272.523 2.46562C271.882 2.3582 271.448 1.74109 271.553 1.08761C271.659 0.431706 272.264 -0.00880794 272.905 0.0986036C273.548 0.206413 273.982 0.821173 273.877 1.47708Z" fill="#352852"/>
<path d="M243.237 23.4476C243.132 24.1035 242.529 24.5445 241.886 24.4367C241.245 24.3292 240.811 23.7144 240.916 23.0585C241.022 22.405 241.627 21.9621 242.268 22.0695C242.911 22.1773 243.343 22.7941 243.237 23.4476Z" fill="#352852"/>
<path d="M225.468 41.4459C225.363 42.1018 224.758 42.5447 224.117 42.4373C223.474 42.3295 223.039 41.7123 223.145 41.0564C223.25 40.4029 223.856 39.96 224.499 40.0678C225.139 40.1752 225.574 40.7924 225.468 41.4459Z" fill="#352852"/>
<path d="M232.221 8.54867C232.115 9.20458 231.51 9.64497 230.869 9.53756C230.226 9.42975 229.792 8.81511 229.897 8.1592C230.003 7.50572 230.608 7.06274 231.251 7.17055C231.892 7.27796 232.326 7.89519 232.221 8.54867Z" fill="#352852"/>
<path d="M99.3338 64.7244C99.1434 65.9055 98.0495 66.7039 96.8937 66.5102C95.7356 66.3161 94.9524 65.203 95.1428 64.0219C95.3331 62.8408 96.4244 62.0418 97.5826 62.236C98.7384 62.4297 99.5241 63.5433 99.3338 64.7244Z" fill="#352852"/>
<path d="M84.6766 219.697C84.2963 222.057 82.1104 223.656 79.7965 223.268C77.4802 222.88 75.9116 220.651 76.2919 218.291C76.6726 215.929 78.8584 214.329 81.1747 214.717C83.4886 215.105 85.0573 217.334 84.6766 219.697Z" fill="#352852"/>
<path d="M16.7768 438.535C16.3961 440.898 14.2103 442.497 11.8963 442.11C9.58242 441.722 8.01369 439.493 8.39442 437.13C8.77475 434.771 10.9606 433.171 13.2745 433.559C15.5884 433.946 17.1571 436.176 16.7768 438.535Z" fill="#352852"/>
<path d="M404.762 165.885C404.382 168.245 402.196 169.844 399.882 169.457C397.566 169.068 395.997 166.839 396.377 164.479C396.758 162.117 398.944 160.52 401.26 160.908C403.574 161.296 405.143 163.523 404.762 165.885Z" fill="#352852"/>
<path d="M392.558 221.793L392.792 220.341L392.555 220.301L393.452 214.734L393.215 214.695L394.151 208.886L393.914 208.846L394.811 203.279L394.574 203.24L395.51 197.431L395.273 197.391L396.17 191.824L395.932 191.785L396.83 186.218L396.592 186.178L397.529 180.369L397.291 180.33L398.188 174.763L397.951 174.723L398.887 168.914L399.125 168.954L399.086 169.196L400.747 169.475L400.786 169.233L401.498 169.352L397.675 193.071L397.438 193.031L392.796 221.833" fill="url(#paint0_radial)"/>
<path d="M399.882 169.457C399.521 169.396 399.18 169.292 398.862 169.149L399.115 167.019L399.935 166.483L400.118 166.513L401.521 168.618L401.384 169.435C400.901 169.53 400.395 169.543 399.882 169.457Z" fill="#352852"/>
<path d="M402.641 161.398C402.223 161.161 401.759 160.992 401.26 160.908C400.878 160.844 400.5 160.833 400.132 160.873L409.358 113.658L402.641 161.398Z" fill="url(#paint1_radial)"/>
<path d="M400.603 163.624L399.814 162.498L400.132 160.873C400.5 160.833 400.878 160.844 401.26 160.908C401.759 160.992 402.223 161.161 402.641 161.398L402.492 162.462L400.603 163.624Z" fill="#352852"/>
<path d="M396.374 165.863L345.196 156.959L396.736 163.311C396.568 163.674 396.445 164.063 396.378 164.479C396.301 164.951 396.305 165.417 396.374 165.863Z" fill="url(#paint2_radial)"/>
<path d="M397.23 166.012L396.374 165.863C396.305 165.417 396.302 164.951 396.378 164.479C396.445 164.063 396.568 163.674 396.737 163.312L398.194 163.491L398.98 164.739L397.23 166.012Z" fill="#352852"/>
<path d="M404.349 167.163C404.547 166.771 404.689 166.342 404.762 165.885C404.834 165.442 404.836 165.005 404.78 164.583L451.238 174.023L404.349 167.163Z" fill="url(#paint3_radial)"/>
<path d="M402.661 166.915L401.994 165.789L402.124 165.017L403.21 164.265L404.78 164.583C404.836 165.005 404.834 165.442 404.762 165.885C404.689 166.342 404.546 166.771 404.349 167.163L402.661 166.915Z" fill="#352852"/>
<path d="M400.118 166.513L399.935 166.482L400.047 166.409L400.118 166.513ZM401.994 165.789L401.709 165.306L402.124 165.017L401.994 165.789Z" fill="#352852"/>
<path d="M366.308 188.507L396.529 166.521C396.719 167.114 397.033 167.659 397.445 168.113L366.308 188.507Z" fill="url(#paint4_radial)"/>
<path d="M397.444 168.113C397.033 167.659 396.718 167.114 396.529 166.521L397.23 166.012L399.193 166.353L399.115 167.019L397.444 168.113Z" fill="#352852"/>
<path d="M399.115 167.019L399.193 166.354L399.935 166.483L399.115 167.019Z" fill="#352852"/>
<path d="M399.193 166.353L397.23 166.012L398.98 164.739L399.322 165.281L399.193 166.353Z" fill="#352852"/>
<path d="M399.935 166.483L399.193 166.353L399.322 165.282L399.77 165.993L400.046 166.409L399.935 166.483Z" fill="#352852"/>
<path d="M404.445 163.406C404.195 162.839 403.826 162.332 403.368 161.92L431.962 144.312L404.445 163.406Z" fill="url(#paint5_radial)"/>
<path d="M403.21 164.265L402.264 164.072L402.492 162.462L403.369 161.92C403.826 162.333 404.196 162.839 404.446 163.406L403.21 164.265Z" fill="#352852"/>
<path d="M402.263 164.071L401.267 163.87L400.728 163.802L400.603 163.624L402.49 162.463L402.263 164.071Z" fill="#352852"/>
<path d="M402.124 165.018L402.173 164.728L402.264 164.072L403.209 164.265L402.124 165.018Z" fill="#352852"/>
<path d="M401.709 165.306L401.324 164.655L400.728 163.802L401.267 163.871L402.263 164.072L402.172 164.728L402.123 165.018L401.709 165.306Z" fill="#352852"/>
<path d="M420.622 197.251L401.961 169.275C402.535 169.073 403.058 168.746 403.494 168.324L420.622 197.251Z" fill="url(#paint6_radial)"/>
<path d="M401.961 169.275L401.521 168.618L401.827 166.792L402.661 166.915L403.494 168.324C403.058 168.746 402.534 169.073 401.961 169.275Z" fill="#352852"/>
<path d="M401.521 168.618L400.118 166.513L401.161 166.695L401.828 166.792L401.521 168.618Z" fill="#352852"/>
<path d="M401.828 166.792L401.994 165.789L402.661 166.915L401.828 166.792Z" fill="#352852"/>
<path d="M401.161 166.695L400.118 166.513L400.047 166.409L401.314 165.58L401.709 165.306L401.994 165.789L401.828 166.792L401.161 166.695Z" fill="#352852"/>
<path d="M397.424 162.268L377.287 130.295L398.903 161.196C398.342 161.443 397.837 161.808 397.424 162.268Z" fill="url(#paint7_radial)"/>
<path d="M398.194 163.491L397.424 162.268C397.836 161.808 398.341 161.443 398.903 161.196L399.814 162.497L399.588 163.663L398.194 163.491Z" fill="#352852"/>
<path d="M399.588 163.663L399.814 162.498L400.602 163.624L400.381 163.761L399.588 163.663Z" fill="#352852"/>
<path d="M398.98 164.739L398.194 163.492L399.587 163.663L399.441 164.402L398.98 164.739Z" fill="#352852"/>
<path d="M399.442 164.401L399.588 163.663L400.381 163.761L400.002 163.996L399.442 164.401Z" fill="#352852"/>
<path d="M400.381 163.761L400.603 163.624L400.727 163.801L400.381 163.761Z" fill="#352852"/>
<path d="M399.322 165.281L398.98 164.739L399.442 164.402L399.399 164.618L399.322 165.281Z" fill="#352852"/>
<path d="M400.047 166.409L399.77 165.992L399.322 165.281L399.399 164.618L399.442 164.401L400.002 163.996L400.381 163.761L400.728 163.802L401.324 164.655L401.709 165.306L401.314 165.58L400.047 166.409Z" fill="#352852"/>
<path d="M703.003 96.6016C702.622 98.9614 700.439 100.562 698.113 100.172C695.811 99.7859 694.244 97.5571 694.625 95.1973C695.005 92.835 697.189 91.2372 699.491 91.6231C701.816 92.013 703.383 94.2394 703.003 96.6016Z" fill="#352852"/>
<path d="M338.419 42.6539C338.229 43.835 337.135 44.6335 335.977 44.4394C334.821 44.2456 334.035 43.1321 334.226 41.9509C334.416 40.7698 335.51 39.9713 336.666 40.1651C337.824 40.3592 338.61 41.4728 338.419 42.6539Z" fill="#352852"/>
<path d="M1.40692 184.036C1.21656 185.217 0.125021 186.016 -1.03312 185.822C-2.1889 185.628 -2.97464 184.514 -2.78427 183.333C-2.59391 182.152 -1.50001 181.354 -0.344238 181.547C0.813908 181.742 1.59728 182.855 1.40692 184.036Z" fill="#352852"/>
<path d="M299.372 159.904C299.182 161.083 298.09 161.881 296.932 161.687C295.774 161.493 294.991 160.38 295.181 159.201C295.371 158.02 296.463 157.219 297.621 157.413C298.779 157.607 299.562 158.723 299.372 159.904Z" fill="#352852"/>
<path d="M340.109 312.817C339.919 313.998 338.825 314.797 337.669 314.603C336.511 314.409 335.727 313.296 335.918 312.115C336.108 310.934 337.2 310.135 338.358 310.329C339.513 310.522 340.299 311.636 340.109 312.817Z" fill="#352852"/>
<path d="M191.29 276.014C191.1 277.193 190.006 277.991 188.85 277.798C187.692 277.604 186.906 276.49 187.096 275.311C187.287 274.13 188.381 273.329 189.539 273.523C190.695 273.717 191.48 274.833 191.29 276.014Z" fill="#352852"/>
<path d="M40.8039 0.0984234C40.614 1.27711 39.522 2.07843 38.3639 1.8843C37.2081 1.69056 36.4228 0.574558 36.6127 -0.604134C36.8031 -1.78525 37.897 -2.58375 39.0528 -2.39001C40.2109 -2.19587 40.9943 -1.08269 40.8039 0.0984234Z" fill="#352852"/>
<path d="M206.248 353.441C206.058 354.619 204.966 355.421 203.808 355.227C202.65 355.032 201.867 353.917 202.057 352.738C202.247 351.557 203.339 350.758 204.497 350.952C205.655 351.146 206.439 352.26 206.248 353.441Z" fill="#352852"/>
<path d="M229.111 308.188C229.006 308.844 228.401 309.284 227.76 309.177C227.117 309.069 226.682 308.454 226.788 307.798C226.893 307.145 227.499 306.702 228.142 306.81C228.783 306.917 229.217 307.534 229.111 308.188Z" fill="#352852"/>
<path d="M299.261 279.49C299.155 280.146 298.55 280.586 297.909 280.479C297.269 280.371 296.831 279.756 296.937 279.1C297.042 278.447 297.65 278.004 298.291 278.112C298.932 278.219 299.366 278.836 299.261 279.49Z" fill="#352852"/>
<path d="M434.938 207.843C434.833 208.497 434.225 208.939 433.585 208.832C432.944 208.724 432.509 208.107 432.615 207.454C432.72 206.8 433.326 206.355 433.966 206.462C434.607 206.57 435.044 207.19 434.938 207.843Z" fill="#352852"/>
<path d="M268.623 301.463C268.518 302.117 267.91 302.559 267.269 302.452C266.629 302.344 266.194 301.727 266.3 301.074C266.405 300.418 267.01 299.977 267.651 300.085C268.292 300.192 268.729 300.807 268.623 301.463Z" fill="#352852"/>
<path d="M280.231 355.218C280.126 355.872 279.52 356.317 278.879 356.21C278.238 356.102 277.804 355.483 277.91 354.829C278.015 354.176 278.62 353.733 279.261 353.84C279.902 353.948 280.336 354.565 280.231 355.218Z" fill="#352852"/>
<path d="M357.072 367.798C356.966 368.452 356.363 368.895 355.72 368.787C355.08 368.68 354.645 368.062 354.751 367.409C354.856 366.755 355.461 366.31 356.102 366.417C356.745 366.525 357.177 367.145 357.072 367.798Z" fill="#352852"/>
<path d="M528.654 337.373C528.549 338.026 527.942 338.469 527.301 338.362C526.66 338.254 526.223 337.637 526.329 336.983C526.434 336.33 527.042 335.887 527.682 335.995C528.323 336.102 528.76 336.72 528.654 337.373Z" fill="#352852"/>
<path d="M250.852 319.461C250.747 320.114 250.141 320.557 249.498 320.449C248.857 320.342 248.423 319.725 248.528 319.071C248.634 318.415 249.239 317.973 249.88 318.08C250.523 318.188 250.958 318.805 250.852 319.461Z" fill="#352852"/>
<path d="M351.181 432.068C351.076 432.721 350.468 433.164 349.827 433.056C349.186 432.949 348.75 432.331 348.855 431.678C348.961 431.024 349.568 430.582 350.209 430.689C350.85 430.797 351.286 431.414 351.181 432.068Z" fill="#352852"/>
<path d="M256.857 285.245C257.465 285.479 257.772 286.171 257.545 286.792C257.317 287.41 256.637 287.726 256.029 287.492C255.42 287.259 255.113 286.566 255.342 285.946C255.571 285.325 256.251 285.012 256.857 285.245Z" fill="#352852"/>
<path d="M199.241 453.886C199.135 454.542 198.53 454.983 197.89 454.875C197.249 454.768 196.812 454.153 196.917 453.497C197.023 452.843 197.63 452.401 198.271 452.508C198.912 452.616 199.346 453.233 199.241 453.886Z" fill="#352852"/>
<path d="M202.975 173.628C202.87 174.282 202.265 174.725 201.624 174.617C200.983 174.51 200.547 173.892 200.652 173.239C200.757 172.585 201.365 172.143 202.006 172.25C202.647 172.358 203.081 172.975 202.975 173.628Z" fill="#352852"/>
<path d="M272.875 214.366C272.769 215.019 272.164 215.462 271.524 215.355C270.883 215.248 270.448 214.63 270.554 213.977C270.659 213.321 271.264 212.88 271.905 212.988C272.546 213.095 272.98 213.71 272.875 214.366Z" fill="#352852"/>
<path d="M117.674 181.977C117.569 182.63 116.964 183.076 116.323 182.968C115.682 182.861 115.248 182.241 115.353 181.588C115.459 180.934 116.064 180.491 116.705 180.599C117.346 180.706 117.78 181.323 117.674 181.977Z" fill="#352852"/>
<path d="M54.8404 413.047C54.7351 413.7 54.13 414.143 53.4892 414.036C52.8461 413.928 52.4117 413.311 52.517 412.657C52.6223 412.004 53.2276 411.561 53.8708 411.669C54.5115 411.776 54.9458 412.393 54.8404 413.047Z" fill="#352852"/>
<path d="M124.717 342.739C124.527 343.918 123.436 344.719 122.277 344.525C121.122 344.331 120.336 343.215 120.526 342.037C120.717 340.856 121.811 340.057 122.966 340.251C124.124 340.445 124.908 341.558 124.717 342.739Z" fill="#352852"/>
<path d="M55.4153 509.593C55.2249 510.774 54.1334 511.573 52.9752 511.379C51.8194 511.185 51.0337 510.072 51.2241 508.891C51.4144 507.709 52.5083 506.911 53.6641 507.105C54.8222 507.299 55.6056 508.412 55.4153 509.593Z" fill="#352852"/>
<path d="M885.669 25.3075C885.289 27.6673 883.105 29.2675 880.803 28.8817C878.477 28.4918 876.911 26.263 877.291 23.9032C877.672 21.541 879.855 19.9432 882.181 20.333C884.483 20.7189 886.05 22.9453 885.669 25.3075Z" fill="#352852"/>
<path d="M1081.49 76.0774C1081.11 78.4372 1078.93 80.0375 1076.6 79.6476C1074.3 79.2617 1072.74 77.0329 1073.12 74.6731C1073.5 72.3109 1075.68 70.7107 1077.98 71.0966C1080.31 71.4865 1081.87 73.7152 1081.49 76.0774Z" fill="#352852"/>
<path d="M685.504 85.0977C685.314 86.2764 684.234 87.0797 683.071 86.8847C681.908 86.6898 681.137 85.5762 681.327 84.3975C681.517 83.2164 682.597 82.4155 683.76 82.6104C684.923 82.8054 685.694 83.9165 685.504 85.0977Z" fill="#352852"/>
<path d="M601.733 210.153C601.627 210.806 601.02 211.249 600.379 211.141C599.738 211.034 599.302 210.416 599.407 209.763C599.513 209.107 600.12 208.664 600.761 208.772C601.402 208.879 601.838 209.497 601.733 210.153Z" fill="#352852"/>
<path d="M793.479 88.5763C793.373 89.2298 792.766 89.6723 792.125 89.5649C791.484 89.4575 791.048 88.84 791.153 88.1865C791.259 87.5306 791.866 87.0905 792.507 87.1979C793.148 87.3053 793.584 87.9204 793.479 88.5763Z" fill="#352852"/>
<path d="M762.834 110.546C762.729 111.202 762.122 111.642 761.481 111.535C760.84 111.427 760.403 110.812 760.509 110.156C760.614 109.503 761.221 109.06 761.862 109.168C762.503 109.275 762.94 109.893 762.834 110.546Z" fill="#352852"/>
<path d="M745.066 128.544C744.96 129.2 744.352 129.643 743.712 129.535C743.071 129.428 742.634 128.81 742.74 128.154C742.845 127.501 743.453 127.058 744.094 127.166C744.734 127.273 745.171 127.891 745.066 128.544Z" fill="#352852"/>
<path d="M449.345 59.0532C449.24 59.7067 448.635 60.1496 447.994 60.0422C447.353 59.9348 446.916 59.3172 447.022 58.6637C447.127 58.0102 447.735 57.5677 448.375 57.6751C449.016 57.7825 449.45 58.3997 449.345 59.0532Z" fill="#352852"/>
<path d="M618.934 151.823C618.743 153.004 617.664 153.805 616.501 153.61C615.338 153.415 614.566 152.304 614.757 151.123C614.947 149.942 616.027 149.141 617.19 149.336C618.353 149.531 619.124 150.642 618.934 151.823Z" fill="#352852"/>
<path d="M587.357 432.885C586.976 435.247 584.793 436.847 582.467 436.458C580.165 436.072 578.575 433.839 578.956 431.477C579.336 429.117 581.543 427.521 583.845 427.907C586.171 428.297 587.737 430.525 587.357 432.885Z" fill="#352852"/>
<path d="M485.176 434.283C484.796 436.643 482.613 438.243 480.311 437.857C477.985 437.467 476.419 435.238 476.799 432.879C477.18 430.516 479.363 428.919 481.688 429.308C483.991 429.694 485.557 431.921 485.176 434.283Z" fill="#352852"/>
<path d="M304.245 581.585C303.864 583.947 301.68 585.547 299.364 585.159C297.05 584.771 295.482 582.542 295.862 580.179C296.243 577.817 298.429 576.217 300.743 576.605C303.059 576.994 304.625 579.222 304.245 581.585Z" fill="#352852"/>
<path d="M924.362 252.984C923.981 255.344 921.798 256.944 919.496 256.558C917.17 256.168 915.604 253.939 915.984 251.579C916.365 249.217 918.548 247.619 920.874 248.009C923.176 248.395 924.742 250.622 924.362 252.984Z" fill="#352852"/>
<path d="M1222.6 183.7C1222.22 186.06 1220.04 187.66 1217.74 187.275C1215.41 186.885 1213.84 184.656 1214.22 182.296C1214.6 179.934 1216.79 178.336 1219.11 178.726C1221.42 179.112 1222.98 181.338 1222.6 183.7Z" fill="#352852"/>
<path d="M904.402 122.614C904.212 123.795 903.132 124.596 901.969 124.401C900.806 124.206 900.034 123.095 900.225 121.913C900.415 120.732 901.495 119.931 902.658 120.126C903.821 120.321 904.592 121.433 904.402 122.614Z" fill="#352852"/>
<path d="M521.001 271.134C520.811 272.315 519.731 273.116 518.568 272.921C517.406 272.726 516.634 271.615 516.824 270.434C517.015 269.252 518.094 268.452 519.257 268.647C520.42 268.841 521.192 269.953 521.001 271.134Z" fill="#352852"/>
<path d="M749.511 191.397C749.321 192.578 748.241 193.379 747.078 193.184C745.915 192.989 745.144 191.878 745.334 190.697C745.524 189.516 746.604 188.715 747.767 188.91C748.93 189.105 749.701 190.216 749.511 191.397Z" fill="#352852"/>
<path d="M1012.34 299.792C1012.15 300.973 1011.07 301.773 1009.9 301.578C1008.74 301.384 1007.97 300.272 1008.16 299.091C1008.35 297.913 1009.43 297.109 1010.59 297.304C1011.76 297.499 1012.53 298.613 1012.34 299.792Z" fill="#352852"/>
<path d="M710.892 363.114C710.702 364.292 709.622 365.093 708.459 364.898C707.296 364.703 706.501 363.588 706.691 362.409C706.881 361.228 707.985 360.429 709.148 360.624C710.311 360.819 711.082 361.932 710.892 363.114Z" fill="#352852"/>
<path d="M560.421 87.2001C560.231 88.3788 559.127 89.1781 557.964 88.9832C556.801 88.7882 556.03 87.6746 556.22 86.4959C556.41 85.3148 557.49 84.5139 558.653 84.7089C559.816 84.9038 560.611 86.019 560.421 87.2001Z" fill="#352852"/>
<path d="M681.368 420.019C681.178 421.2 680.074 421.997 678.911 421.802C677.772 421.611 676.977 420.496 677.167 419.314C677.358 418.133 678.461 417.336 679.6 417.527C680.763 417.722 681.558 418.837 681.368 420.019Z" fill="#352852"/>
<path d="M748.725 395.289C748.619 395.945 748.012 396.385 747.371 396.278C746.731 396.17 746.294 395.555 746.399 394.899C746.505 394.246 747.112 393.803 747.753 393.911C748.394 394.018 748.83 394.636 748.725 395.289Z" fill="#352852"/>
<path d="M818.867 366.59C818.761 367.246 818.154 367.686 817.513 367.578C816.873 367.471 816.435 366.856 816.541 366.2C816.646 365.546 817.254 365.104 817.895 365.211C818.536 365.319 818.972 365.936 818.867 366.59Z" fill="#352852"/>
<path d="M954.549 294.944C954.444 295.598 953.837 296.04 953.196 295.933C952.555 295.825 952.118 295.208 952.224 294.554C952.329 293.901 952.937 293.456 953.578 293.563C954.219 293.671 954.655 294.291 954.549 294.944Z" fill="#352852"/>
<path d="M944.793 221.646C944.687 222.299 944.08 222.742 943.439 222.634C942.798 222.527 942.362 221.91 942.467 221.256C942.572 220.603 943.18 220.16 943.821 220.267C944.461 220.375 944.898 220.992 944.793 221.646Z" fill="#352852"/>
<path d="M799.837 442.318C799.732 442.972 799.124 443.417 798.483 443.309C797.843 443.202 797.406 442.582 797.511 441.928C797.617 441.275 798.224 440.832 798.865 440.94C799.506 441.047 799.943 441.665 799.837 442.318Z" fill="#352852"/>
<path d="M1085.33 219.077C1085.23 219.733 1084.62 220.175 1083.98 220.068C1083.34 219.96 1082.9 219.343 1083.01 218.687C1083.11 218.033 1083.72 217.591 1084.36 217.698C1085 217.806 1085.44 218.423 1085.33 219.077Z" fill="#352852"/>
<path d="M1048.25 424.472C1048.15 425.125 1047.54 425.568 1046.9 425.46C1046.26 425.353 1045.82 424.735 1045.93 424.082C1046.03 423.429 1046.64 422.986 1047.28 423.093C1047.92 423.201 1048.36 423.818 1048.25 424.472Z" fill="#352852"/>
<path d="M639.993 570.868C639.889 571.519 639.304 571.968 638.664 571.861C638.023 571.753 637.586 571.133 637.691 570.482C637.797 569.826 638.404 569.386 639.045 569.494C639.686 569.601 640.099 570.212 639.993 570.868Z" fill="#352852"/>
<path d="M793.832 523.588C793.726 524.244 793.118 524.687 792.478 524.579C791.837 524.472 791.4 523.854 791.506 523.198C791.611 522.545 792.219 522.102 792.859 522.21C793.5 522.317 793.937 522.935 793.832 523.588Z" fill="#352852"/>
<path d="M870.785 519.167C870.68 519.821 870.072 520.263 869.431 520.156C868.79 520.049 868.354 519.431 868.459 518.777C868.564 518.124 869.172 517.681 869.813 517.789C870.453 517.896 870.89 518.514 870.785 519.167Z" fill="#352852"/>
<path d="M908.634 506.481C908.529 507.135 907.921 507.58 907.281 507.472C906.64 507.365 906.203 506.745 906.309 506.092C906.414 505.438 907.022 504.996 907.662 505.103C908.303 505.21 908.74 505.828 908.634 506.481Z" fill="#352852"/>
<path d="M905.647 482.826C905.542 483.48 904.934 483.922 904.293 483.815C903.652 483.707 903.216 483.09 903.321 482.436C903.426 481.783 904.034 481.34 904.675 481.448C905.315 481.555 905.752 482.173 905.647 482.826Z" fill="#352852"/>
<path d="M776.455 372.344C777.075 372.579 777.378 373.271 777.156 373.893C776.911 374.508 776.25 374.827 775.63 374.592C775.034 374.36 774.707 373.664 774.953 373.046C775.175 372.425 775.859 372.112 776.455 372.344Z" fill="#352852"/>
<path d="M623.203 584.457C623.099 585.108 622.491 585.553 621.85 585.445C621.209 585.338 620.773 584.718 620.878 584.067C620.983 583.411 621.591 582.968 622.232 583.076C622.873 583.183 623.309 583.801 623.203 584.457Z" fill="#352852"/>
<path d="M722.567 260.726C722.462 261.379 721.878 261.826 721.237 261.718C720.597 261.611 720.16 260.993 720.265 260.34C720.37 259.686 720.978 259.244 721.619 259.351C722.26 259.459 722.673 260.072 722.567 260.726Z" fill="#352852"/>
<path d="M792.486 301.467C792.38 302.12 791.773 302.563 791.132 302.455C790.491 302.348 790.055 301.73 790.16 301.077C790.266 300.421 790.873 299.981 791.514 300.088C792.154 300.196 792.592 300.811 792.486 301.467Z" fill="#352852"/>
<path d="M637.279 269.076C637.173 269.73 636.566 270.175 635.925 270.067C635.284 269.96 634.848 269.34 634.953 268.687C635.058 268.033 635.666 267.591 636.307 267.698C636.948 267.805 637.384 268.423 637.279 269.076Z" fill="#352852"/>
<path d="M486.892 493.056C486.786 493.712 486.178 494.155 485.538 494.047C484.897 493.94 484.46 493.322 484.566 492.666C484.671 492.015 485.279 491.571 485.919 491.678C486.56 491.785 486.997 492.405 486.892 493.056Z" fill="#352852"/>
<path d="M574.444 500.146C574.339 500.8 573.732 501.242 573.091 501.135C572.45 501.027 572.013 500.41 572.119 499.756C572.224 499.103 572.832 498.66 573.472 498.768C574.113 498.875 574.55 499.493 574.444 500.146Z" fill="#352852"/>
<path d="M443.975 438.756C443.785 439.935 442.691 440.736 441.533 440.541C440.377 440.348 439.592 439.232 439.782 438.053C439.972 436.872 441.066 436.073 442.222 436.267C443.38 436.461 444.166 437.575 443.975 438.756Z" fill="#352852"/>
<path d="M501.44 609.668C501.25 610.847 500.17 611.65 499.007 611.455C497.844 611.261 497.073 610.147 497.263 608.968C497.453 607.79 498.533 606.986 499.696 607.181C500.859 607.376 501.63 608.49 501.44 609.668Z" fill="#352852"/>
<path d="M1186.12 245.49C1185.93 246.671 1184.85 247.472 1183.69 247.277C1182.53 247.082 1181.76 245.971 1181.95 244.79C1182.14 243.609 1183.22 242.808 1184.38 243.003C1185.54 243.198 1186.31 244.309 1186.12 245.49Z" fill="#352852"/>
<path d="M1102.35 370.545C1102.25 371.199 1101.64 371.641 1101 371.534C1100.36 371.426 1099.92 370.809 1100.03 370.155C1100.13 369.502 1100.74 369.059 1101.38 369.167C1102.02 369.274 1102.46 369.892 1102.35 370.545Z" fill="#352852"/>
<path d="M1294.1 248.969C1293.99 249.622 1293.39 250.065 1292.75 249.957C1292.1 249.85 1291.67 249.232 1291.77 248.579C1291.88 247.925 1292.49 247.483 1293.13 247.59C1293.77 247.698 1294.2 248.315 1294.1 248.969Z" fill="#352852"/>
<path d="M916.884 39.2675C916.779 39.921 916.171 40.3636 915.53 40.2562C914.89 40.1487 914.453 39.5312 914.558 38.8777C914.664 38.2218 915.272 37.7793 915.912 37.8867C916.553 37.9941 916.99 38.6116 916.884 39.2675Z" fill="#352852"/>
<path d="M1284.45 148.109C1284.34 148.762 1283.73 149.205 1283.09 149.098C1282.45 148.99 1282.01 148.373 1282.12 147.719C1282.23 147.063 1282.83 146.621 1283.47 146.728C1284.11 146.835 1284.55 147.453 1284.45 148.109Z" fill="#352852"/>
<path d="M1245.69 288.937C1245.58 289.593 1244.97 290.035 1244.33 289.928C1243.69 289.82 1243.25 289.203 1243.36 288.547C1243.47 287.893 1244.07 287.451 1244.71 287.558C1245.35 287.666 1245.79 288.283 1245.69 288.937Z" fill="#352852"/>
<path d="M977.162 204.395C976.53 204.388 976.008 203.843 976.017 203.181C976.027 202.519 976.551 201.986 977.208 201.996C977.864 202.007 978.386 202.552 978.376 203.214C978.367 203.876 977.819 204.405 977.162 204.395Z" fill="#352852"/>
<path d="M1119.55 312.216C1119.36 313.397 1118.28 314.198 1117.12 314.003C1115.96 313.808 1115.19 312.697 1115.38 311.515C1115.57 310.337 1116.65 309.533 1117.81 309.728C1118.97 309.923 1119.74 311.037 1119.55 312.216Z" fill="#352852"/>
<path d="M1039.06 582.378C1038.68 584.738 1036.5 586.338 1034.17 585.949C1031.87 585.563 1030.3 583.334 1030.68 580.974C1031.06 578.614 1033.25 577.014 1035.55 577.4C1037.88 577.79 1039.44 580.019 1039.06 582.378Z" fill="#352852"/>
<path d="M699.764 573.706C699.383 576.066 697.2 577.666 694.874 577.276C692.572 576.89 691.006 574.662 691.386 572.302C691.766 569.942 693.95 568.342 696.252 568.728C698.578 569.117 700.144 571.346 699.764 573.706Z" fill="#352852"/>
<path d="M866.561 616.304C866.18 618.664 863.997 620.264 861.695 619.878C859.369 619.488 857.803 617.259 858.183 614.899C858.564 612.537 860.747 610.939 863.073 611.329C865.375 611.715 866.941 613.942 866.561 616.304Z" fill="#352852"/>
<path d="M683.961 653.152C683.581 655.512 681.398 657.112 679.072 656.722C676.77 656.336 675.204 654.108 675.584 651.748C675.965 649.386 678.148 647.788 680.45 648.174C682.775 648.563 684.342 650.79 683.961 653.152Z" fill="#352852"/>
<path d="M812.613 697.566C812.232 699.929 810.049 701.526 807.723 701.136C805.421 700.751 803.831 698.52 804.212 696.158C804.592 693.796 806.8 692.2 809.102 692.585C811.427 692.975 812.994 695.204 812.613 697.566Z" fill="#352852"/>
<path d="M635.212 489.535C634.832 491.894 632.648 493.495 630.346 493.109C628.02 492.719 626.454 490.49 626.834 488.13C627.215 485.768 629.398 484.17 631.724 484.56C634.026 484.946 635.593 487.172 635.212 489.535Z" fill="#352852"/>
<path d="M1405.02 283.006C1404.83 284.187 1403.75 284.988 1402.59 284.793C1401.43 284.598 1400.66 283.487 1400.85 282.306C1401.04 281.127 1402.12 280.324 1403.28 280.519C1404.44 280.714 1405.21 281.827 1405.02 283.006Z" fill="#352852"/>
<path d="M1021.62 431.526C1021.43 432.707 1020.35 433.508 1019.19 433.313C1018.03 433.118 1017.25 432.007 1017.45 430.826C1017.63 429.647 1018.71 428.844 1019.88 429.039C1021.04 429.234 1021.81 430.348 1021.62 431.526Z" fill="#352852"/>
<path d="M1389.23 154.169C1389.04 155.35 1387.96 156.151 1386.79 155.956C1385.63 155.761 1384.86 154.65 1385.05 153.469C1385.24 152.288 1386.32 151.487 1387.48 151.682C1388.65 151.877 1389.42 152.988 1389.23 154.169Z" fill="#352852"/>
<path d="M1375.12 75.33C1374.93 76.5087 1373.85 77.3119 1372.69 77.117C1371.53 76.9221 1370.76 75.8085 1370.95 74.6298C1371.14 73.4487 1372.22 72.6478 1373.38 72.8427C1374.54 73.0376 1375.31 74.1489 1375.12 75.33Z" fill="#352852"/>
<path d="M1289.32 363.912C1289.13 365.093 1288.05 365.894 1286.89 365.699C1285.72 365.504 1284.95 364.393 1285.14 363.212C1285.33 362.03 1286.41 361.23 1287.58 361.425C1288.74 361.619 1289.51 362.731 1289.32 363.912Z" fill="#352852"/>
<path d="M1061.04 247.593C1060.85 248.774 1059.75 249.571 1058.58 249.376C1057.42 249.181 1056.65 248.07 1056.84 246.889C1057.03 245.707 1058.11 244.907 1059.27 245.101C1060.44 245.296 1061.23 246.412 1061.04 247.593Z" fill="#352852"/>
<path d="M1141.24 619.101C1141.05 620.282 1139.97 621.083 1138.81 620.888C1137.64 620.693 1136.87 619.582 1137.06 618.401C1137.25 617.22 1138.33 616.421 1139.5 616.616C1140.66 616.811 1141.43 617.92 1141.24 619.101Z" fill="#352852"/>
<path d="M1249.35 555.682C1249.24 556.338 1248.63 556.778 1247.99 556.67C1247.35 556.563 1246.91 555.948 1247.02 555.292C1247.13 554.638 1247.73 554.196 1248.37 554.303C1249.01 554.411 1249.45 555.028 1249.35 555.682Z" fill="#352852"/>
<path d="M1319.49 526.982C1319.38 527.638 1318.77 528.081 1318.13 527.973C1317.49 527.866 1317.06 527.248 1317.16 526.592C1317.27 525.939 1317.87 525.496 1318.52 525.604C1319.16 525.711 1319.59 526.329 1319.49 526.982Z" fill="#352852"/>
<path d="M1197.81 483.742C1197.43 486.102 1195.25 487.702 1192.95 487.317C1190.62 486.927 1189.05 484.698 1189.43 482.338C1189.82 479.976 1192 478.378 1194.32 478.768C1196.63 479.154 1198.19 481.38 1197.81 483.742Z" fill="#352852"/>
<path d="M964.636 850.886C964.255 853.246 962.072 854.846 959.77 854.46C957.444 854.07 955.878 851.842 956.258 849.482C956.638 847.122 958.822 845.522 961.148 845.912C963.45 846.298 965.016 848.526 964.636 850.886Z" fill="#352852"/>
<path d="M999.383 905.542C999.192 906.723 998.112 907.527 996.949 907.332C995.786 907.137 995.015 906.023 995.206 904.842C995.396 903.663 996.476 902.86 997.639 903.055C998.802 903.25 999.573 904.364 999.383 905.542Z" fill="#352852"/>
<path d="M1229.66 873.678C1229.47 874.859 1228.39 875.66 1227.22 875.465C1226.06 875.27 1225.29 874.159 1225.48 872.978C1225.67 871.797 1226.75 870.996 1227.91 871.191C1229.08 871.386 1229.85 872.497 1229.66 873.678Z" fill="#352852"/>
<path d="M1073.38 895.555C1073.28 896.211 1072.67 896.654 1072.03 896.546C1071.39 896.439 1070.95 895.821 1071.06 895.165C1071.16 894.512 1071.77 894.069 1072.41 894.177C1073.05 894.284 1073.49 894.902 1073.38 895.555Z" fill="#352852"/>
<path d="M1150.44 812.325C1150.33 812.976 1149.72 813.421 1149.08 813.314C1148.44 813.206 1148.01 812.586 1148.11 811.935C1148.22 811.279 1148.82 810.837 1149.46 810.944C1150.11 811.051 1150.54 811.669 1150.44 812.325Z" fill="#352852"/>
<path d="M1214.13 818.62C1214.03 819.276 1213.42 819.716 1212.78 819.609C1212.14 819.501 1211.7 818.886 1211.81 818.23C1211.91 817.574 1212.52 817.134 1213.16 817.242C1213.8 817.349 1214.24 817.964 1214.13 818.62Z" fill="#352852"/>
<path d="M938.137 792.241C938.031 792.897 937.424 793.337 936.783 793.23C936.142 793.122 935.705 792.507 935.811 791.851C935.916 791.195 936.524 790.755 937.165 790.863C937.805 790.97 938.242 791.585 938.137 792.241Z" fill="#352852"/>
<path d="M1142.97 904.904C1142.87 905.558 1142.26 906 1141.62 905.893C1140.98 905.785 1140.54 905.168 1140.65 904.514C1140.75 903.859 1141.36 903.416 1142 903.523C1142.64 903.631 1143.08 904.248 1142.97 904.904Z" fill="#352852"/>
<path d="M1294.28 843.214C1294.18 843.87 1293.57 844.312 1292.93 844.205C1292.29 844.097 1291.85 843.48 1291.96 842.824C1292.06 842.17 1292.67 841.728 1293.31 841.835C1293.95 841.943 1294.39 842.56 1294.28 843.214Z" fill="#352852"/>
<path d="M1277.08 532.736C1277.7 532.972 1278 533.664 1277.78 534.286C1277.53 534.903 1276.87 535.22 1276.25 534.984C1275.65 534.753 1275.33 534.059 1275.57 533.439C1275.8 532.817 1276.48 532.505 1277.08 532.736Z" fill="#352852"/>
<path d="M1222.66 720.622C1223.26 720.854 1223.59 721.55 1223.34 722.165C1223.12 722.789 1222.44 723.102 1221.84 722.87C1221.22 722.634 1220.92 721.942 1221.14 721.321C1221.38 720.703 1222.04 720.386 1222.66 720.622Z" fill="#352852"/>
<path d="M1099.87 801.953C1099.77 802.609 1099.16 803.049 1098.52 802.942C1097.88 802.834 1097.44 802.219 1097.55 801.563C1097.65 800.907 1098.26 800.467 1098.9 800.575C1099.54 800.682 1099.98 801.297 1099.87 801.953Z" fill="#352852"/>
<path d="M1223.19 421.118C1223.08 421.772 1222.5 422.218 1221.86 422.111C1221.22 422.003 1220.78 421.386 1220.89 420.732C1220.99 420.079 1221.6 419.636 1222.24 419.744C1222.88 419.851 1223.29 420.465 1223.19 421.118Z" fill="#352852"/>
<path d="M1293.11 461.859C1293 462.513 1292.39 462.955 1291.75 462.848C1291.11 462.74 1290.68 462.123 1290.78 461.469C1290.89 460.813 1291.49 460.373 1292.13 460.481C1292.78 460.588 1293.21 461.203 1293.11 461.859Z" fill="#352852"/>
<path d="M1137.9 429.469C1137.79 430.123 1137.19 430.568 1136.55 430.46C1135.9 430.353 1135.47 429.733 1135.57 429.079C1135.68 428.426 1136.29 427.983 1136.93 428.091C1137.57 428.198 1138 428.816 1137.9 429.469Z" fill="#352852"/>
<path d="M1302.06 663.269C1301.95 663.923 1301.34 664.368 1300.7 664.26C1300.06 664.153 1299.62 663.533 1299.73 662.879C1299.83 662.226 1300.44 661.783 1301.08 661.891C1301.72 661.998 1302.16 662.616 1302.06 663.269Z" fill="#352852"/>
<path d="M1340.94 911.825C1340.75 913.006 1339.65 913.803 1338.51 913.612C1337.35 913.417 1336.55 912.302 1336.74 911.121C1336.93 909.942 1338.03 909.145 1339.2 909.34C1340.34 909.531 1341.13 910.646 1340.94 911.825Z" fill="#352852"/>
<path d="M1262.48 127.889C1262.37 128.545 1261.76 128.988 1261.12 128.88C1260.48 128.773 1260.05 128.155 1260.15 127.499C1260.26 126.846 1260.87 126.403 1261.51 126.511C1262.15 126.618 1262.58 127.236 1262.48 127.889Z" fill="#352852"/>
<path d="M1191.32 214.173C1191.21 214.827 1190.6 215.269 1189.96 215.162C1189.32 215.054 1188.89 214.437 1188.99 213.783C1189.1 213.13 1189.7 212.687 1190.35 212.795C1190.99 212.902 1191.42 213.52 1191.32 214.173Z" fill="#352852"/>
<path d="M1342.63 152.485C1342.52 153.139 1341.91 153.581 1341.27 153.474C1340.63 153.366 1340.2 152.749 1340.3 152.095C1340.41 151.442 1341.01 150.997 1341.66 151.104C1342.3 151.212 1342.73 151.832 1342.63 152.485Z" fill="#352852"/>
<path d="M1320.21 96.6638C1319.62 96.9466 1318.93 96.6918 1318.64 96.0884C1318.37 95.4914 1318.63 94.7771 1319.22 94.4943C1319.8 94.2115 1320.51 94.4703 1320.78 95.0697C1321.05 95.6667 1320.81 96.385 1320.21 96.6638Z" fill="#352852"/>
<path d="M1271.01 29.8912C1271.63 30.1293 1271.93 30.8189 1271.71 31.4404C1271.46 32.0579 1270.8 32.3748 1270.18 32.1391C1269.59 31.9098 1269.26 31.2138 1269.51 30.5963C1269.73 29.9724 1270.41 29.6619 1271.01 29.8912Z" fill="#352852"/>
<path d="M1148.22 111.222C1148.11 111.878 1147.51 112.321 1146.87 112.213C1146.22 112.106 1145.79 111.488 1145.89 110.832C1146 110.179 1146.61 109.736 1147.25 109.844C1147.89 109.951 1148.32 110.569 1148.22 111.222Z" fill="#352852"/>
<path d="M1389.29 221.097C1389.1 222.275 1388.02 223.079 1386.85 222.884C1385.69 222.689 1384.92 221.575 1385.11 220.397C1385.3 219.215 1386.38 218.415 1387.54 218.61C1388.7 218.804 1389.48 219.916 1389.29 221.097Z" fill="#352852"/>
<path d="M1337.6 722.195C1337.5 722.846 1336.89 723.291 1336.25 723.184C1335.61 723.077 1335.17 722.457 1335.28 721.806C1335.38 721.15 1335.99 720.709 1336.63 720.817C1337.27 720.924 1337.71 721.539 1337.6 722.195Z" fill="#352852"/>
<path d="M987.512 653.451C987.407 654.105 986.799 654.547 986.158 654.44C985.517 654.333 985.081 653.715 985.186 653.061C985.292 652.406 985.899 651.965 986.54 652.073C987.18 652.18 987.618 652.795 987.512 653.451Z" fill="#352852"/>
<path d="M863.147 775.554C863.042 776.208 862.458 776.654 861.817 776.547C861.152 776.436 860.74 775.822 860.845 775.169C860.951 774.513 861.534 774.066 862.199 774.178C862.84 774.285 863.253 774.899 863.147 775.554Z" fill="#352852"/>
<path d="M1075.07 660.539C1074.96 661.195 1074.35 661.635 1073.71 661.527C1073.07 661.42 1072.63 660.805 1072.74 660.149C1072.84 659.496 1073.45 659.053 1074.09 659.16C1074.73 659.268 1075.17 659.885 1075.07 660.539Z" fill="#352852"/>
<path d="M967.429 807.094C967.323 807.75 966.716 808.19 966.075 808.083C965.434 807.975 964.997 807.36 965.103 806.704C965.209 806.048 965.816 805.608 966.457 805.716C967.097 805.823 967.534 806.438 967.429 807.094Z" fill="#352852"/>
<path d="M944.592 599.148C944.401 600.329 943.321 601.132 942.158 600.937C940.995 600.742 940.224 599.629 940.415 598.448C940.605 597.269 941.685 596.466 942.848 596.661C944.011 596.856 944.782 597.969 944.592 599.148Z" fill="#352852"/>
<path d="M939.849 501.236C939.659 502.415 938.555 503.214 937.416 503.024C936.253 502.829 935.459 501.711 935.649 500.532C935.839 499.351 936.942 498.554 938.105 498.749C939.244 498.94 940.04 500.055 939.849 501.236Z" fill="#352852"/>
<path d="M231.378 470.395C230.998 472.754 228.813 474.352 226.499 473.964C224.183 473.576 222.616 471.349 222.996 468.989C223.377 466.627 225.56 465.027 227.877 465.415C230.191 465.803 231.759 468.032 231.378 470.395Z" fill="#352852"/>
<path d="M56.5278 408.808C56.3374 409.989 55.2436 410.788 54.0854 410.594C52.9297 410.4 52.1462 409.287 52.3366 408.106C52.527 406.924 53.619 406.123 54.7747 406.317C55.9329 406.511 56.7182 407.627 56.5278 408.808Z" fill="#352852"/>
<path d="M319.355 517.202C319.165 518.381 318.071 519.182 316.912 518.988C315.757 518.794 314.974 517.678 315.164 516.5C315.354 515.319 316.446 514.517 317.602 514.711C318.76 514.905 319.545 516.021 319.355 517.202Z" fill="#352852"/>
<path d="M17.9063 580.521C17.716 581.703 16.6221 582.501 15.464 582.307C14.3082 582.113 13.5225 581 13.7128 579.818C13.9028 578.64 14.9971 577.839 16.1529 578.033C17.311 578.227 18.0963 579.343 17.9063 580.521Z" fill="#352852"/>
<path d="M55.728 612.695C55.6223 613.351 55.017 613.794 54.3738 613.686C53.7331 613.579 53.2988 612.962 53.4046 612.306C53.5095 611.655 54.115 611.209 54.7557 611.317C55.3989 611.424 55.8329 612.044 55.728 612.695Z" fill="#352852"/>
<path d="M125.877 583.999C125.771 584.655 125.166 585.096 124.525 584.988C123.885 584.881 123.447 584.266 123.553 583.61C123.659 582.954 124.266 582.514 124.907 582.621C125.548 582.729 125.982 583.343 125.877 583.999Z" fill="#352852"/>
<path d="M261.555 512.351C261.449 513.007 260.841 513.449 260.201 513.342C259.56 513.234 259.126 512.617 259.231 511.961C259.337 511.308 259.942 510.865 260.582 510.972C261.223 511.08 261.66 511.697 261.555 512.351Z" fill="#352852"/>
<path d="M251.8 439.055C251.694 439.709 251.091 440.152 250.448 440.044C249.807 439.937 249.373 439.319 249.478 438.666C249.584 438.01 250.189 437.57 250.83 437.677C251.473 437.785 251.905 438.399 251.8 439.055Z" fill="#352852"/>
<path d="M106.847 659.728C106.741 660.384 106.136 660.824 105.496 660.717C104.852 660.609 104.42 659.995 104.526 659.339C104.631 658.685 105.234 658.242 105.877 658.35C106.518 658.457 106.952 659.074 106.847 659.728Z" fill="#352852"/>
<path d="M49.6394 770.563C49.5337 771.219 48.9284 771.662 48.2876 771.554C47.6469 771.447 47.2103 770.83 47.316 770.174C47.421 769.523 48.0287 769.078 48.6695 769.185C49.3103 769.292 49.7444 769.912 49.6394 770.563Z" fill="#352852"/>
<path d="M197.595 728.979C197.489 729.635 196.881 730.077 196.24 729.97C195.6 729.862 195.165 729.245 195.271 728.589C195.376 727.936 195.982 727.493 196.622 727.6C197.263 727.708 197.7 728.325 197.595 728.979Z" fill="#352852"/>
<path d="M83.4726 589.755C84.0808 589.988 84.3886 590.679 84.1619 591.3C83.9323 591.922 83.253 592.236 82.6448 592.002C82.0369 591.766 81.729 591.076 81.9582 590.455C82.1873 589.835 82.8643 589.521 83.4726 589.755Z" fill="#352852"/>
<path d="M25.8571 758.394C25.7514 759.05 25.1463 759.493 24.5055 759.385C23.8624 759.277 23.428 758.66 23.5337 758.004C23.639 757.351 24.2443 756.908 24.8874 757.016C25.5282 757.123 25.9624 757.74 25.8571 758.394Z" fill="#352852"/>
<path d="M29.5919 478.135C29.4861 478.791 28.8811 479.234 28.2403 479.127C27.5971 479.019 27.1627 478.402 27.2684 477.746C27.3738 477.093 27.979 476.65 28.6222 476.757C29.263 476.865 29.6972 477.482 29.5919 478.135Z" fill="#352852"/>
<path d="M99.491 518.873C99.3853 519.529 98.7806 519.97 98.1398 519.862C97.499 519.755 97.0642 519.14 97.1699 518.484C97.2748 517.833 97.8805 517.388 98.5213 517.495C99.1621 517.602 99.5959 518.222 99.491 518.873Z" fill="#352852"/>
<path d="M290.848 422.74C290.743 423.393 290.138 423.836 289.497 423.729C288.856 423.621 288.422 423.004 288.527 422.351C288.632 421.697 289.238 421.254 289.878 421.362C290.519 421.469 290.953 422.086 290.848 422.74Z" fill="#352852"/>
<path d="M1315.11 864.595C1314.92 865.774 1313.82 866.571 1312.68 866.38C1311.52 866.185 1310.72 865.069 1310.91 863.891C1311.1 862.707 1312.21 861.913 1313.37 862.108C1314.51 862.299 1315.3 863.411 1315.11 864.595Z" fill="#352852"/>
<path d="M1330.08 942.023C1329.89 943.201 1328.79 944.001 1327.62 943.806C1326.48 943.615 1325.69 942.497 1325.88 941.318C1326.07 940.137 1327.17 939.338 1328.31 939.529C1329.47 939.724 1330.27 940.841 1330.08 942.023Z" fill="#352852"/>
<path d="M1352.92 896.767C1352.82 897.423 1352.21 897.863 1351.57 897.755C1350.93 897.648 1350.52 897.037 1350.62 896.381C1350.73 895.727 1351.31 895.281 1351.95 895.388C1352.59 895.496 1353.03 896.113 1352.92 896.767Z" fill="#352852"/>
<path d="M96.0911 724.89C95.9007 726.071 94.8092 726.87 93.651 726.676C92.4929 726.481 91.7072 725.368 91.8975 724.187C92.0875 723.008 93.1814 722.21 94.3395 722.404C95.4977 722.598 96.281 723.711 96.0911 724.89Z" fill="#352852"/>
<path d="M145.579 855.327C145.473 855.983 144.868 856.424 144.227 856.316C143.587 856.209 143.149 855.594 143.255 854.938C143.36 854.286 143.968 853.842 144.609 853.949C145.25 854.056 145.684 854.676 145.579 855.327Z" fill="#352852"/>
<path d="M326.798 824.788C326.692 825.444 326.087 825.887 325.447 825.779C324.806 825.672 324.369 825.054 324.475 824.398C324.58 823.747 325.188 823.302 325.828 823.41C326.469 823.517 326.903 824.137 326.798 824.788Z" fill="#352852"/>
<path d="M177.509 826.409C178.117 826.643 178.424 827.336 178.195 827.956C177.966 828.576 177.287 828.89 176.678 828.656C176.07 828.423 175.763 827.73 175.991 827.112C176.221 826.489 176.9 826.176 177.509 826.409Z" fill="#352852"/>
<path d="M31.3223 838.661C31.2166 839.317 30.6119 839.757 29.9712 839.65C29.3304 839.542 28.8955 838.928 29.0012 838.272C29.1062 837.62 29.7119 837.175 30.3527 837.282C30.9935 837.39 31.4273 838.009 31.3223 838.661Z" fill="#352852"/>
<path d="M199.11 780.217C199.004 780.873 198.399 781.313 197.759 781.206C197.118 781.098 196.683 780.484 196.789 779.828C196.894 779.172 197.499 778.731 198.14 778.839C198.781 778.946 199.215 779.561 199.11 780.217Z" fill="#352852"/>
<path d="M373.459 893.399C373.269 894.583 372.177 895.382 371.019 895.188C369.861 894.994 369.077 893.88 369.268 892.697C369.458 891.519 370.549 890.72 371.708 890.914C372.866 891.108 373.649 892.221 373.459 893.399Z" fill="#352852"/>
<path d="M292.443 827.982C292.337 828.635 291.732 829.078 291.092 828.971C290.448 828.863 290.016 828.246 290.122 827.593C290.227 826.937 290.83 826.496 291.473 826.604C292.114 826.712 292.548 827.326 292.443 827.982Z" fill="#352852"/>
<path d="M347.631 846.169C347.441 847.348 346.349 848.146 345.191 847.952C344.033 847.758 343.249 846.645 343.439 845.466C343.63 844.285 344.721 843.487 345.879 843.681C347.037 843.875 347.821 844.988 347.631 846.169Z" fill="#352852"/>
<path d="M530.215 886.024C530.025 887.206 528.921 888.003 527.758 887.808C526.619 887.617 525.824 886.502 526.015 885.32C526.204 884.142 527.308 883.343 528.447 883.534C529.61 883.729 530.405 884.847 530.215 886.024Z" fill="#352852"/>
<path d="M385.455 878.344C385.349 878.999 384.742 879.439 384.101 879.332C383.461 879.224 383.024 878.609 383.129 877.954C383.234 877.303 383.842 876.858 384.483 876.965C385.123 877.073 385.56 877.692 385.455 878.344Z" fill="#352852"/>
<path d="M1392.44 890.043C1392.34 890.697 1391.73 891.139 1391.09 891.032C1390.45 890.924 1390.01 890.307 1390.12 889.653C1390.22 888.998 1390.83 888.557 1391.47 888.665C1392.11 888.772 1392.55 889.387 1392.44 890.043Z" fill="#352852"/>
<path d="M1404.06 943.8C1403.95 944.453 1403.35 944.896 1402.71 944.788C1402.06 944.681 1401.63 944.063 1401.73 943.41C1401.84 942.756 1402.45 942.314 1403.09 942.421C1403.73 942.529 1404.16 943.146 1404.06 943.8Z" fill="#352852"/>
<path d="M1374.68 908.039C1374.57 908.695 1373.96 909.137 1373.32 909.03C1372.68 908.923 1372.24 908.305 1372.35 907.649C1372.46 906.998 1373.06 906.553 1373.7 906.661C1374.34 906.768 1374.78 907.388 1374.68 908.039Z" fill="#352852"/>
<path d="M1063.43 768.097C1063.33 768.75 1062.72 769.193 1062.08 769.085C1061.44 768.978 1061 768.36 1061.11 767.707C1061.21 767.053 1061.82 766.611 1062.46 766.718C1063.1 766.826 1063.54 767.443 1063.43 768.097Z" fill="#352852"/>
<path d="M1380.68 873.825C1381.3 874.061 1381.6 874.751 1381.35 875.371C1381.13 875.99 1380.45 876.303 1379.85 876.073C1379.23 875.838 1378.93 875.145 1379.17 874.528C1379.4 873.906 1380.08 873.594 1380.68 873.825Z" fill="#352852"/>
<path d="M1082.57 736.946C1082.46 737.597 1081.85 738.042 1081.21 737.935C1080.57 737.828 1080.14 737.208 1080.24 736.557C1080.35 735.901 1080.95 735.458 1081.59 735.565C1082.24 735.673 1082.67 736.29 1082.57 736.946Z" fill="#352852"/>
<path d="M1114.69 753.449C1114.31 755.809 1112.12 757.409 1109.82 757.023C1107.5 756.633 1105.93 754.405 1106.31 752.045C1106.69 749.685 1108.87 748.085 1111.2 748.475C1113.5 748.861 1115.07 751.089 1114.69 753.449Z" fill="#352852"/>
<path d="M1144.88 795.41C1144.77 796.066 1144.16 796.506 1143.52 796.398C1142.88 796.291 1142.44 795.676 1142.55 795.02C1142.65 794.366 1143.26 793.924 1143.9 794.031C1144.54 794.139 1144.98 794.756 1144.88 795.41Z" fill="#352852"/>
<path d="M1135.12 722.112C1135.01 722.765 1134.41 723.208 1133.76 723.1C1133.12 722.993 1132.69 722.375 1132.79 721.722C1132.9 721.068 1133.51 720.626 1134.15 720.733C1134.79 720.841 1135.22 721.458 1135.12 722.112Z" fill="#352852"/>
<path d="M272.517 717.951C272.136 720.313 269.953 721.913 267.637 721.525C265.323 721.137 263.754 718.908 264.135 716.546C264.515 714.183 266.701 712.584 269.015 712.972C271.331 713.36 272.898 715.589 272.517 717.951Z" fill="#352852"/>
<path d="M328.644 648.938C328.454 650.117 327.362 650.918 326.204 650.724C325.045 650.53 324.262 649.414 324.452 648.235C324.643 647.054 325.735 646.253 326.893 646.447C328.051 646.641 328.834 647.757 328.644 648.938Z" fill="#352852"/>
<path d="M251.608 816.559C251.418 817.737 250.324 818.538 249.166 818.344C248.01 818.15 247.227 817.035 247.417 815.856C247.607 814.675 248.699 813.874 249.855 814.067C251.013 814.261 251.798 815.377 251.608 816.559Z" fill="#352852"/>
<path d="M820.417 795.233C820.227 796.411 819.147 797.212 817.984 797.017C816.822 796.822 816.05 795.711 816.24 794.532C816.43 793.351 817.51 792.55 818.673 792.745C819.836 792.94 820.607 794.051 820.417 795.233Z" fill="#352852"/>
<path d="M356.073 742.191C355.883 743.37 354.789 744.17 353.63 743.976C352.475 743.783 351.689 742.667 351.879 741.488C352.07 740.307 353.164 739.506 354.32 739.7C355.478 739.894 356.263 741.01 356.073 742.191Z" fill="#352852"/>
<path d="M464.174 678.771C464.069 679.424 463.461 679.869 462.82 679.762C462.179 679.654 461.743 679.034 461.848 678.381C461.954 677.727 462.561 677.282 463.202 677.39C463.843 677.497 464.279 678.117 464.174 678.771Z" fill="#352852"/>
<path d="M515.286 725.799C515.18 726.455 514.573 726.895 513.933 726.788C513.292 726.681 512.855 726.065 512.96 725.41C513.066 724.756 513.673 724.314 514.314 724.421C514.955 724.528 515.391 725.146 515.286 725.799Z" fill="#352852"/>
<path d="M458.084 836.636C457.978 837.292 457.37 837.736 456.729 837.629C456.088 837.522 455.652 836.902 455.758 836.246C455.863 835.595 456.471 835.15 457.111 835.257C457.752 835.365 458.189 835.985 458.084 836.636Z" fill="#352852"/>
<path d="M586.234 802.649C586.129 803.302 585.521 803.744 584.881 803.637C584.24 803.53 583.803 802.912 583.909 802.259C584.014 801.603 584.621 801.163 585.262 801.27C585.903 801.377 586.34 801.993 586.234 802.649Z" fill="#352852"/>
<path d="M434.282 824.463C434.176 825.119 433.593 825.565 432.952 825.458C432.311 825.35 431.874 824.733 431.98 824.077C432.085 823.426 432.693 822.981 433.334 823.088C433.975 823.196 434.387 823.812 434.282 824.463Z" fill="#352852"/>
<path d="M754.51 865.86C754.13 868.222 751.946 869.822 749.62 869.433C747.318 869.047 745.752 866.818 746.133 864.456C746.513 862.093 748.697 860.493 750.999 860.879C753.325 861.269 754.891 863.498 754.51 865.86Z" fill="#352852"/>
<path d="M625.776 802.603C625.395 804.965 623.212 806.565 620.886 806.175C618.584 805.789 617.017 803.561 617.398 801.198C617.778 798.841 619.962 797.241 622.264 797.627C624.589 798.017 626.156 800.245 625.776 802.603Z" fill="#352852"/>
<path d="M737.071 715.008C736.881 716.189 735.801 716.99 734.638 716.795C733.475 716.6 732.704 715.489 732.894 714.307C733.085 713.126 734.164 712.325 735.327 712.52C736.49 712.715 737.262 713.826 737.071 715.008Z" fill="#352852"/>
<path d="M930.552 860.622C930.362 861.803 929.282 862.604 928.119 862.409C926.956 862.214 926.161 861.099 926.351 859.917C926.542 858.736 927.645 857.939 928.808 858.134C929.971 858.329 930.742 859.44 930.552 860.622Z" fill="#352852"/>
<path d="M737.699 817.427C737.593 818.082 736.985 818.525 736.345 818.418C735.704 818.31 735.267 817.693 735.373 817.037C735.478 816.383 736.086 815.941 736.726 816.048C737.367 816.156 737.804 816.773 737.699 817.427Z" fill="#352852"/>
<path d="M824.187 781.674C824.081 782.327 823.474 782.77 822.833 782.662C822.192 782.555 821.756 781.937 821.861 781.284C821.967 780.628 822.574 780.185 823.215 780.293C823.856 780.4 824.292 781.018 824.187 781.674Z" fill="#352852"/>
<path d="M660.041 882.629C659.851 883.808 658.77 884.611 657.608 884.416C656.445 884.221 655.674 883.108 655.864 881.929C656.054 880.748 657.134 879.945 658.297 880.14C659.46 880.334 660.231 881.448 660.041 882.629Z" fill="#352852"/>
<path d="M623.51 915.106C623.32 916.287 622.217 917.084 621.054 916.889C619.891 916.694 619.119 915.583 619.31 914.402C619.5 913.22 620.58 912.42 621.743 912.615C622.905 912.809 623.701 913.924 623.51 915.106Z" fill="#352852"/>
<path d="M538.421 791.253C538.231 792.432 537.128 793.229 535.965 793.034C534.826 792.843 534.03 791.728 534.22 790.549C534.411 789.366 535.515 788.569 536.654 788.76C537.817 788.955 538.612 790.07 538.421 791.253Z" fill="#352852"/>
<defs>
<radialGradient id="paint0_radial" cx="0" cy="0" r="1" gradientUnits="userSpaceOnUse" gradientTransform="translate(696.599 1265.24) rotate(-80.8443) scale(1315.57 1291.29)">
<stop stop-color="#F1415F"/>
<stop offset="0.592558" stop-color="#561953"/>
<stop offset="1" stop-color="#252454"/>
</radialGradient>
<radialGradient id="paint1_radial" cx="0" cy="0" r="1" gradientUnits="userSpaceOnUse" gradientTransform="translate(696.585 1265.24) rotate(-80.8443) scale(1315.57 1291.25)">
<stop stop-color="#F1415F"/>
<stop offset="0.592558" stop-color="#561953"/>
<stop offset="1" stop-color="#252454"/>
</radialGradient>
<radialGradient id="paint2_radial" cx="0" cy="0" r="1" gradientUnits="userSpaceOnUse" gradientTransform="translate(696.601 1265.24) rotate(-80.8443) scale(1315.57 1291.3)">
<stop stop-color="#F1415F"/>
<stop offset="0.592558" stop-color="#561953"/>
<stop offset="1" stop-color="#252454"/>
</radialGradient>
<radialGradient id="paint3_radial" cx="0" cy="0" r="1" gradientUnits="userSpaceOnUse" gradientTransform="translate(696.602 1265.23) rotate(-80.8443) scale(1315.56 1291.3)">
<stop stop-color="#F1415F"/>
<stop offset="0.592558" stop-color="#561953"/>
<stop offset="1" stop-color="#252454"/>
</radialGradient>
<radialGradient id="paint4_radial" cx="0" cy="0" r="1" gradientUnits="userSpaceOnUse" gradientTransform="translate(696.599 1265.24) rotate(-80.8443) scale(1315.57 1291.3)">
<stop stop-color="#F14D6A"/>
<stop offset="0.592558" stop-color="#652167"/>
<stop offset="1" stop-color="#322968"/>
</radialGradient>
<radialGradient id="paint5_radial" cx="0" cy="0" r="1" gradientUnits="userSpaceOnUse" gradientTransform="translate(696.6 1265.24) rotate(-80.8443) scale(1315.57 1291.3)">
<stop stop-color="#F14D6A"/>
<stop offset="0.592558" stop-color="#652167"/>
<stop offset="1" stop-color="#322968"/>
</radialGradient>
<radialGradient id="paint6_radial" cx="0" cy="0" r="1" gradientUnits="userSpaceOnUse" gradientTransform="translate(696.603 1265.24) rotate(-80.8443) scale(1315.57 1291.31)">
<stop stop-color="#F14D6A"/>
<stop offset="0.592558" stop-color="#652167"/>
<stop offset="1" stop-color="#322968"/>
</radialGradient>
<radialGradient id="paint7_radial" cx="0" cy="0" r="1" gradientUnits="userSpaceOnUse" gradientTransform="translate(696.601 1265.24) rotate(-80.8443) scale(1315.57 1291.3)">
<stop stop-color="#F14D6A"/>
<stop offset="0.592558" stop-color="#652167"/>
<stop offset="1" stop-color="#322968"/>
</radialGradient>
</defs>
</svg>
