<svg width="36" height="32" viewBox="0 0 36 32" fill="none" xmlns="http://www.w3.org/2000/svg">
<path d="M34.9409 0.94236C31.8203 1.0815 28.8372 2.26631 26.4715 4.30618C26.2226 4.51923 25.982 4.74069 25.7498 4.97056C23.2336 2.93232 20.0934 1.82064 16.8552 1.82176C9.09273 1.82176 2.77768 8.10242 2.77768 15.8223C2.77529 17.6535 3.13368 19.4672 3.83237 21.1599C0.830167 25.4456 -0.0703251 28.308 1.08238 29.9049C1.76392 30.8491 3.05225 31.1249 4.32533 31.1249C6.05045 31.1249 7.74751 30.6187 7.86908 30.5814C7.87766 30.5788 7.88617 30.5759 7.89453 30.5728C9.19584 30.0839 10.4625 29.5075 11.6859 28.8475C14.1705 29.821 16.8797 30.0721 19.5009 29.572C22.1221 29.0719 24.5485 27.8408 26.5001 26.0209C29.0618 23.6358 30.6302 20.3726 30.8923 16.8822C31.2069 16.4804 31.3581 15.9747 31.3156 15.4662C31.2732 14.9577 31.0402 14.484 30.6633 14.14C30.4729 13.9654 30.3449 13.7332 30.299 13.4789C30.253 13.2247 30.2917 12.9624 30.4089 12.7322C32.056 11.3427 33.3612 9.59282 34.2236 7.61804C35.086 5.64325 35.4823 3.49651 35.382 1.34398C35.3795 1.2886 35.3662 1.23425 35.3426 1.18406C35.3191 1.13387 35.2859 1.08881 35.2449 1.05149C35.2039 1.01417 35.1559 0.985321 35.1038 0.966592C35.0516 0.947863 34.9962 0.939628 34.9409 0.94236ZM16.8554 2.66551C19.8761 2.66449 22.8069 3.69337 25.1641 5.58235C24.7733 6.01602 24.4095 6.4732 24.0747 6.95134C23.8562 7.09278 23.5971 7.15815 23.3377 7.13732C23.0782 7.11648 22.8329 7.0106 22.6398 6.83609C22.2437 6.47553 21.7208 6.28687 21.1857 6.31157C20.6507 6.33626 20.1474 6.57228 19.7862 6.96779L17.2547 9.70815C17.2168 9.74922 17.1874 9.7974 17.1683 9.84991C17.1492 9.90242 17.1407 9.9582 17.1433 10.014C17.1459 10.0698 17.1596 10.1246 17.1835 10.1751C17.2075 10.2256 17.2412 10.2708 17.2828 10.3081L18.8894 11.7531C19.4006 12.2128 20.0641 12.4665 20.7516 12.4651C21.1414 12.4651 21.5269 12.384 21.8836 12.2269C21.9071 12.2824 21.9423 12.3322 21.9868 12.373L22.5869 12.9193L20.9883 13.3371C20.9148 13.3563 20.8478 13.395 20.7945 13.4491C20.7412 13.5032 20.7034 13.5707 20.6853 13.6445V13.6459C20.0345 14.5243 18.654 16.3436 16.9346 18.3565L16.8924 18.3073C16.8445 18.251 16.7983 18.1925 16.7554 18.1329L16.0446 17.1478C15.5614 16.4779 14.8205 16.0831 14.0529 16.0831C14.0398 16.0831 14.0265 16.0831 14.0133 16.0831L12.5761 15.2261C12.3044 15.0652 11.996 14.9767 11.6804 14.9691C11.3647 14.9614 11.0524 15.0349 10.7733 15.1825L10.0078 15.5904C9.76645 15.718 9.48601 15.7506 9.22185 15.6816C8.95768 15.6126 8.72899 15.4471 8.58092 15.2177L7.83737 14.0505C7.71331 13.856 7.64909 13.6294 7.65269 13.3987C7.65629 13.168 7.72755 12.9435 7.85762 12.753C8.00375 12.5379 8.20673 12.3676 8.44395 12.261C8.68116 12.1545 8.9433 12.1159 9.20115 12.1496L10.3164 12.2902C10.5928 12.3279 10.8741 12.2835 11.1254 12.1625C11.3766 12.0415 11.5868 11.8494 11.7297 11.6099C11.8629 11.3827 12.06 11.1998 12.2964 11.0838C12.5329 10.9679 12.7982 10.9241 13.0593 10.958L13.5471 11.0199C13.7907 11.0504 14.0381 11.0171 14.265 10.9233C14.4919 10.8295 14.6906 10.6784 14.8415 10.4848L15.2713 9.93041C15.5162 9.61682 15.6539 9.23284 15.664 8.83508C15.6741 8.43732 15.5562 8.04683 15.3275 7.72119L14.4011 6.3927C14.0093 5.83277 13.5007 5.36442 12.9105 5.01992C12.7831 4.94572 12.66 4.86436 12.5418 4.77622L11.3291 3.86919C13.0628 3.074 14.948 2.66338 16.8554 2.66551ZM23.4164 7.98261C22.8473 8.96358 22.3991 10.0099 22.0816 11.0986C21.7259 11.4301 21.2591 11.6167 20.7728 11.6216C20.2866 11.6266 19.8161 11.4497 19.4536 11.1255L18.1645 9.96662L20.408 7.53809C20.5122 7.42372 20.6378 7.33097 20.7777 7.26515C20.9177 7.19933 21.0693 7.16172 21.2237 7.15447C21.3782 7.14722 21.5327 7.17048 21.6782 7.22291C21.8237 7.27534 21.9574 7.35592 22.0718 7.46005C22.4404 7.79377 22.9191 7.97983 23.4164 7.98261ZM21.9539 13.9567L23.3309 13.5967L23.934 14.1457L23.6632 15.5128L21.9539 13.9567ZM22.2194 16.1912C22.226 16.3263 22.1828 16.4592 22.098 16.5646C22.0133 16.6701 21.8928 16.7409 21.7595 16.7636L21.0584 16.884L21.1126 16.175C21.1216 16.064 21.1636 15.9582 21.2331 15.8712C21.3027 15.7843 21.3966 15.72 21.5029 15.6868C21.5472 15.6732 21.5931 15.6653 21.6395 15.6632C21.6484 15.6628 21.6572 15.6626 21.6661 15.6626C21.8085 15.6628 21.9455 15.7178 22.0485 15.8162C22.1515 15.9146 22.2127 16.0489 22.2194 16.1912ZM10.486 4.29296L12.0366 5.45249C12.1805 5.55985 12.3304 5.65896 12.4855 5.74934C12.9699 6.0319 13.3873 6.41609 13.709 6.87547L14.6354 8.20402C14.7605 8.38231 14.825 8.59606 14.8195 8.81378C14.814 9.0315 14.7387 9.2417 14.6047 9.4134L14.175 9.96774C14.1141 10.0456 14.034 10.1063 13.9426 10.144C13.8512 10.1817 13.7516 10.195 13.6535 10.1828L13.1658 10.1207C12.7406 10.0659 12.3086 10.1375 11.9238 10.3265C11.5389 10.5156 11.2183 10.8137 11.0017 11.1837C10.9414 11.2797 10.8547 11.3562 10.7519 11.404C10.6491 11.4517 10.5346 11.4688 10.4224 11.453L9.30732 11.3123C8.89517 11.2586 8.4762 11.3204 8.09712 11.4909C7.71805 11.6613 7.39378 11.9337 7.16047 12.2777C6.93742 12.6046 6.81525 12.9898 6.80911 13.3855C6.80297 13.7812 6.91314 14.17 7.12595 14.5036L7.8695 15.6708C8.13236 16.0786 8.53859 16.3731 9.00797 16.496C9.47736 16.6189 9.97576 16.5613 10.4048 16.3346L11.1702 15.9268C11.321 15.8471 11.4897 15.8074 11.6602 15.8115C11.8307 15.8156 11.9972 15.8634 12.144 15.9503L13.5969 16.8172C13.7236 16.8927 13.8692 16.9308 14.0167 16.927C14.5256 16.9146 15.0283 17.1806 15.3604 17.6411L16.0712 18.6263C16.1275 18.7046 16.1882 18.7815 16.2511 18.855L16.3767 19.002C16.1625 19.2472 15.9443 19.4937 15.7221 19.7413C14.4948 21.1074 13.3473 22.2772 12.2794 23.2505C12.2266 23.1589 12.1679 23.0709 12.1036 22.987L10.5265 20.9311C10.4174 20.7891 10.3366 20.6274 10.2886 20.4549L9.76829 18.5876C9.65599 18.1904 9.44288 17.829 9.14967 17.5384C8.85645 17.2479 8.49308 17.0381 8.09485 16.9294L7.98137 16.8986C7.81824 16.8543 7.66839 16.7708 7.5448 16.6555L6.57364 15.7473C6.44959 15.6312 6.34291 15.4979 6.25689 15.3514C6.00348 14.9201 5.63071 14.5714 5.18353 14.3472C4.73635 14.123 4.23386 14.033 3.73667 14.0881C4.29847 9.86551 6.8821 6.26874 10.486 4.29296ZM3.62157 15.8223C3.62157 15.5311 3.63212 15.2423 3.65103 14.9558L3.69027 14.948C4.04509 14.8792 4.41254 14.9221 4.74194 15.0709C5.07134 15.2197 5.34646 15.467 5.52936 15.7787C5.65638 15.9951 5.81393 16.192 5.99715 16.3634L6.96796 17.2719C7.19213 17.4813 7.46399 17.6327 7.75995 17.7132L7.87351 17.744C8.13086 17.814 8.36574 17.9494 8.55533 18.1369C8.74491 18.3245 8.88276 18.5579 8.95548 18.8145L9.47579 20.6818C9.55264 20.9583 9.68203 21.2174 9.85688 21.4449L11.4339 23.5009C11.5113 23.6024 11.5759 23.7131 11.6262 23.8304C10.486 24.8136 9.45074 25.5504 8.52045 26.0406C6.98824 24.8152 5.75207 23.2601 4.90391 21.491C4.05574 19.7219 3.61743 17.7843 3.62157 15.8223ZM4.3036 22.1786C5.13432 23.7961 6.27255 25.2361 7.65456 26.4179C6.50755 26.8378 4.40949 27.3999 3.63212 26.5961C3.01745 25.9609 3.25876 24.4056 4.3036 22.1786ZM7.61054 29.7781C6.32382 30.1664 2.80307 30.8477 1.76645 29.4106C1.30696 28.7735 1.17582 27.4929 2.4984 24.922C2.35679 25.931 2.53581 26.6831 3.03425 27.1916C3.50858 27.6753 4.2032 27.8446 4.94408 27.8446C6.66273 27.8446 8.62846 26.9325 8.65658 26.9188C10.7364 25.8982 13.3248 23.6732 16.35 20.3054C18.4861 17.9277 20.2915 15.5837 21.1809 14.3935L21.6498 14.8204C21.6333 14.8204 21.617 14.8195 21.6006 14.8204C21.2599 14.8363 20.9368 14.9763 20.6921 15.2139C20.4475 15.4515 20.2981 15.7704 20.2722 16.1105L20.1766 17.3592C20.1718 17.4232 20.1815 17.4875 20.2052 17.5471C20.2289 17.6067 20.2659 17.6602 20.3133 17.7034C20.3608 17.7466 20.4175 17.7784 20.4791 17.7964C20.5407 17.8144 20.6056 17.818 20.6688 17.8072L21.9034 17.5952C22.2395 17.5375 22.5429 17.3588 22.7564 17.0929C22.9699 16.827 23.0788 16.4922 23.0625 16.1516C23.0617 16.1351 23.0591 16.1189 23.0578 16.1024L23.363 16.3802C21.5917 19.4468 16.7641 26.334 7.61054 29.7781ZM25.9236 25.4046C24.1754 27.034 22.0208 28.1627 19.6861 28.6724C17.3513 29.1821 14.9224 29.054 12.6542 28.3015C19.132 24.4983 22.722 19.2072 24.1636 16.6803C24.2104 16.6495 24.2505 16.6098 24.2818 16.5634C24.3131 16.5169 24.3348 16.4647 24.3457 16.4098L24.6628 14.8091L25.1894 15.2885C25.2412 15.3351 25.3038 15.368 25.3715 15.3843C25.1978 15.8956 25.176 16.4464 25.3086 16.9699C25.4413 17.4935 25.7227 17.9674 26.119 18.3344L27.708 19.7991C27.7859 19.8709 27.888 19.9108 27.994 19.9108C28.0006 19.9108 28.0073 19.9108 28.014 19.9103C28.0698 19.9076 28.1245 19.8939 28.175 19.8699C28.2255 19.846 28.2707 19.8122 28.308 19.7706L29.9111 17.9835C29.4368 20.8295 28.035 23.4384 25.9236 25.4046ZM30.1711 16.4301L27.9653 18.8889L26.6906 17.7139C26.3285 17.3785 26.1072 16.9181 26.0713 16.4258C26.0354 15.9335 26.1877 15.4459 26.4973 15.0615C27.5413 14.6526 28.5322 14.1194 29.4485 13.4732C29.4976 13.9684 29.7278 14.4281 30.0949 14.764C30.3258 14.975 30.4635 15.2689 30.4778 15.5813C30.4921 15.8937 30.3818 16.199 30.1711 16.4301ZM25.576 14.4995L22.7371 11.9148C23.3999 9.20095 24.898 6.76367 27.0202 4.94687C28.3793 3.77767 29.9631 2.89878 31.6744 2.36422C32.2982 3.38033 33.1989 4.19745 34.2708 4.71969C33.7975 6.96534 32.7465 9.04865 31.2217 10.7638C29.6968 12.4789 27.7508 13.7666 25.576 14.4995ZM34.4236 3.84999C33.6632 3.43616 33.013 2.84642 32.527 2.13001C33.1928 1.97179 33.8698 1.86544 34.552 1.81191C34.562 2.49357 34.5191 3.17498 34.4236 3.84999Z" fill="#423074"/>
</svg>
