<svg width="37" height="37" viewBox="0 0 37 37" fill="none" xmlns="http://www.w3.org/2000/svg">
<path d="M35.3977 21.0838C35.0266 20.9888 34.6554 21.0838 34.3307 21.3214C33.1245 22.3666 31.7327 23.2218 30.2017 23.7919C28.7635 24.3621 27.1862 24.6471 25.516 24.6471C21.7582 24.6471 18.3252 23.0793 15.8663 20.5612C13.4075 18.0431 11.8766 14.5273 11.8766 10.6789C11.8766 9.06351 12.1549 7.49565 12.6188 6.07031C13.1292 4.54996 13.8714 3.17214 14.8457 1.98437C15.2632 1.46174 15.1704 0.701567 14.6601 0.273968C14.3354 0.0364128 13.9642 -0.0586093 13.5931 0.0364128C9.6497 1.12917 6.21664 3.55223 3.75782 6.78298C1.39178 9.96622 0 13.9096 0 18.1856C0 23.3643 2.04128 28.0679 5.38157 31.4887C8.72185 34.9095 13.2683 37 18.3715 37C22.6397 37 26.5831 35.4796 29.7378 32.9616C32.9389 30.396 35.2585 26.7376 36.2328 22.5566C36.4184 21.8915 36.0472 21.2263 35.3977 21.0838Z" fill="#574488"/>
</svg>
