<svg width="41" height="32" viewBox="0 0 41 32" fill="none" xmlns="http://www.w3.org/2000/svg">
<path d="M13.2802 30.3273C18.2095 32.5251 23.6508 31.8985 27.868 29.15C26.5274 29.0788 25.2008 28.9127 23.8882 28.6705C22.3894 28.3952 20.9045 28.0154 19.4523 27.5502C16.5431 26.6198 13.7318 25.3714 11.0879 23.8239C9.76594 23.0501 8.4859 22.1956 7.26638 21.2652C6.1958 20.444 5.17177 19.5658 4.20825 18.6069C5.0973 23.634 8.34626 28.1342 13.2802 30.3273Z" fill="#574488"/>
<path d="M0.135414 9.56865C0.693978 12.545 2.76997 15.303 4.85062 17.3727C7.42002 19.9313 10.52 22.0152 13.7225 23.6529C18.8706 26.2923 24.9077 28.1341 30.7167 27.8303C32.9185 27.7164 35.2598 27.2559 37.1495 26.0454C37.8152 25.6229 38.4389 25.0818 38.9463 24.4219C39.9424 23.1308 40.3567 21.4883 40.1518 19.8648C39.9051 17.9091 38.9276 16.1574 37.7314 14.6479C37.2287 14.0118 36.7027 13.4422 36.1768 12.92C36.3489 13.9406 36.4281 14.9755 36.4187 16.0198C36.4141 16.2287 36.4095 16.4375 36.4002 16.6464C36.5118 16.8505 36.6189 17.0594 36.7213 17.2683C37.3311 18.5548 37.8338 20.1592 37.2706 21.5501C36.8889 22.4995 36.0371 23.1878 35.1108 23.5865C33.1465 24.4315 30.8192 24.4505 28.7339 24.2843C22.7898 23.8096 16.8831 21.4361 11.842 18.2651C11.2741 17.9091 10.7202 17.5293 10.1756 17.1448C7.53173 15.2602 4.71564 12.8583 3.44491 9.75373C2.7979 8.17298 2.82583 6.44033 4.16173 5.25833C5.03681 4.47982 6.29824 4.00038 7.41536 3.7298C8.26252 2.84686 9.20742 2.05886 10.2361 1.37529C10.022 1.3658 9.80788 1.3563 9.58911 1.35156C7.53173 1.30409 5.36264 1.54618 3.51007 2.52881C2.14624 3.25035 0.968606 4.40862 0.400732 5.86595C-0.0507736 7.03371 -0.0926659 8.33443 0.135414 9.56865Z" fill="#574488"/>
<path d="M8.91414 4.28048C8.11819 5.0305 7.39671 5.86597 6.76832 6.7679C6.01892 7.84072 4.85524 9.30754 5.41381 10.6509C5.73033 11.4152 6.30751 12.0418 6.88004 12.6114C10.9296 16.6369 16.0684 19.3949 21.426 21.2367C24.7308 22.3712 28.1893 23.1877 31.671 23.0406C32.3226 23.0121 33.0348 22.9219 33.4863 22.4424C33.719 22.1956 33.854 21.8776 33.975 21.5595C35.9161 16.447 35.0131 10.3186 31.685 6.01783C28.3569 1.71706 22.72 -0.604224 17.395 0.136307C14.579 0.52556 11.9025 1.76452 9.70549 3.58737C9.43077 3.81053 9.17015 4.04313 8.91414 4.28048Z" fill="#574488"/>
</svg>
