<svg width="33" height="32" viewBox="0 0 33 32" fill="none" xmlns="http://www.w3.org/2000/svg">
<path d="M32.2737 12.091C32.0607 11.4148 31.4795 10.9361 30.7947 10.8722L21.4538 9.99705L17.7622 1.07817C17.4897 0.422913 16.8695 0 16.1792 0C15.4889 0 14.8685 0.422913 14.5977 1.07817L10.9061 9.99705L1.56375 10.8722C0.878908 10.9374 0.29899 11.4161 0.084699 12.091C-0.128357 12.7671 0.0684049 13.5088 0.586357 13.9775L7.64734 20.3668L5.56541 29.8294C5.41308 30.5252 5.67477 31.2446 6.2342 31.6619C6.5349 31.8874 6.88818 32 7.2427 32C7.54735 32 7.85224 31.9164 8.12455 31.7483L16.1792 26.7783L24.2324 31.7483C24.8232 32.1126 25.566 32.0792 26.1242 31.6619C26.6837 31.2446 26.9454 30.5252 26.793 29.8294L24.7111 20.3668L31.7721 13.9775C32.2898 13.5088 32.4868 12.7687 32.2737 12.091Z" fill="#574488"/>
</svg>
