<svg width="76" height="76" viewBox="0 0 76 76" fill="none" xmlns="http://www.w3.org/2000/svg">
<path d="M5.98542 16.4693L6.12271 17.0146L6.26622 16.0562C6.72798 13.0074 8.34417 10.2524 10.784 8.36352C8.29425 6.37733 6.53453 3.63171 5.75453 0.546024L5.61723 2.47955e-05L5.47373 0.959122C5.01321 4.00861 3.39584 6.76297 0.958496 8.65182C3.44389 10.638 5.20542 13.3842 5.98542 16.4693Z" fill="#FFEB34"/>
<path d="M75.8545 9.42195C75.9793 10.577 75.1431 11.6122 73.9887 11.7339C72.8281 11.8555 71.7985 11.0182 71.6737 9.86314C71.5551 8.70811 72.3913 7.67351 73.5457 7.55183C74.7001 7.43015 75.7359 8.26755 75.8545 9.42195Z" fill="#FFEB34"/>
<path d="M70.8812 24.3123C71.0559 25.9622 69.8579 27.4411 68.2105 27.6145C66.5631 27.7886 65.078 26.5918 64.9095 24.9419C64.7348 23.2921 65.9329 21.8138 67.5802 21.6397C69.2276 21.4662 70.7065 22.6625 70.8812 24.3123Z" fill="#FFEB34"/>
<path d="M75.2369 37.7339C69.6521 37.1604 64.0735 36.8216 58.4949 36.5645C52.9351 36.3211 47.369 36.187 41.8029 36.1446C44.1055 33.7865 46.3706 31.3953 48.5983 28.9642C51.1754 26.1418 53.7088 23.2802 56.13 20.305C56.3608 20.0198 55.9802 19.6398 55.6931 19.8713C52.7167 22.2918 49.8588 24.8259 47.0383 27.3999C44.6047 29.6282 42.2148 31.8964 39.8498 34.1977C39.8061 28.6241 39.6751 23.0505 39.4317 17.477C39.1696 11.9065 38.8327 6.33609 38.2648 0.76564C38.2087 0.230865 37.4224 0.230865 37.3725 0.76564C36.7984 6.33609 36.4615 11.9065 36.2056 17.477C35.9623 23.0518 35.825 28.626 35.7813 34.2008C33.4163 31.8957 31.0202 29.6225 28.5866 27.3899C25.7661 24.8209 22.9081 22.2905 19.9379 19.8719C19.6571 19.6391 19.2765 20.0198 19.5074 20.305C21.9285 23.274 24.4557 26.1312 27.0266 28.9492C29.2605 31.3859 31.5319 33.7828 33.8344 36.1465C28.2621 36.1927 22.6898 36.3262 17.1112 36.5702C11.5451 36.8273 5.97278 37.1654 0.401076 37.7339C-0.133692 37.7888 -0.133692 38.5757 0.401076 38.63C5.97278 39.1991 11.5451 39.5367 17.1112 39.7944C22.6898 40.0377 28.2621 40.1719 33.8344 40.2174C31.5319 42.5818 29.2605 44.978 27.0266 47.4153C24.4557 50.2333 21.9285 53.0906 19.5074 56.0596C19.2765 56.3441 19.6571 56.7248 19.9379 56.492C22.9081 54.0734 25.7661 51.5437 28.5866 48.974C31.0202 46.742 33.4163 44.47 35.7813 42.1656C35.825 47.731 35.956 53.2965 36.1994 58.8613C36.4552 64.4405 36.7984 70.0197 37.3725 75.5989C37.4224 76.1337 38.2087 76.1337 38.2648 75.5989C38.8389 70.0197 39.1758 64.4405 39.4379 58.8613C39.675 53.2971 39.8123 47.7329 39.856 42.1687C42.2147 44.4694 44.6047 46.737 47.0383 48.9647C49.8588 51.5387 52.7167 54.0721 55.6931 56.4926C55.9802 56.7247 56.3608 56.3448 56.13 56.0596C53.7088 53.0844 51.1754 50.2221 48.5983 47.3997C46.3706 44.9686 44.1055 42.578 41.8029 40.2193C47.369 40.1769 52.9351 40.0427 58.4949 39.7994C64.0735 39.5429 69.6521 39.2034 75.2369 38.63C75.7673 38.5751 75.7673 37.7888 75.2369 37.7339Z" fill="#FFEB34"/>
</svg>
